<?xml version="1.0" encoding="UTF-8"?>
<!-- Generator: visioncortex VTracer 0.6.3 -->
<svg version="1.1" xmlns="http://www.w3.org/2000/svg" width="1280" height="853">
<path d="M0 0 C422.4 0 844.8 0 1280 0 C1280 281.49 1280 562.98 1280 853 C857.6 853 435.2 853 0 853 C0 571.51 0 290.02 0 0 Z " fill="#FAFCFC" transform="translate(0,0)"/>
<path d="M0 0 C5.03 4.9 9.4 10.09 13.55 15.74 C14.11 16.43 14.66 17.12 15.23 17.83 C35.82 44.75 38.68 80.59 38.73 113.13 C38.73 115.17 38.74 117.22 38.75 119.26 C38.76 123.65 38.77 128.03 38.78 132.41 C38.8 139.36 38.82 146.3 38.85 153.25 C38.92 172.99 38.98 192.73 39.03 212.47 C39.06 223.39 39.1 234.31 39.14 245.23 C39.16 252.12 39.18 259.01 39.19 265.9 C39.2 270.2 39.22 274.5 39.24 278.81 C39.25 280.79 39.25 282.77 39.25 284.75 C39.27 317.16 46.7 340.53 66.3 366.4 C78.47 382.49 78.47 382.49 78.62 391.62 C77.52 398.29 72.12 402.71 66.93 406.55 C66.26 407.03 65.59 407.51 64.9 408 C61.97 410.17 59.2 412.51 56.43 414.87 C55.88 415.34 55.32 415.81 54.76 416.29 C51.85 418.77 48.95 421.26 46.06 423.77 C40.36 428.7 34.64 433.52 28.62 438.05 C24.56 441.11 20.86 444.28 17.36 447.96 C10.09 455.16 0.38 464.74 -10.45 464.74 C-23.02 462.69 -32.53 451.12 -41.45 442.74 C-42.13 442.12 -42.82 441.5 -43.53 440.86 C-52.76 432.19 -60.51 421.16 -67.3 410.5 C-68.59 408.51 -70 406.63 -71.45 404.74 C-75.78 406.14 -78.14 408.14 -81.26 411.43 C-101.05 431.77 -124.81 447.89 -151.45 457.74 C-152.5 458.13 -153.55 458.52 -154.63 458.92 C-185.6 469.32 -223.5 470.76 -255.45 464.74 C-256.64 464.52 -256.64 464.52 -257.85 464.3 C-276.21 460.79 -293.81 452.98 -309.45 442.74 C-309.78 442.08 -310.11 441.42 -310.45 440.74 C-311.95 439.94 -311.95 439.94 -313.48 439.11 C-318.33 436.43 -322.01 432.72 -325.88 428.8 C-326.63 428.05 -327.39 427.29 -328.16 426.51 C-334.09 420.39 -338.54 414.35 -342.45 406.74 C-343.36 405.03 -343.36 405.03 -344.29 403.29 C-359.48 374.03 -364.11 340.62 -360.2 307.99 C-359.99 306.3 -359.99 306.3 -359.79 304.57 C-357.33 284.94 -351.7 267.08 -342.42 249.59 C-341.55 247.93 -340.69 246.26 -339.83 244.59 C-335.31 236.23 -329.28 229.44 -322.94 222.43 C-321.54 220.84 -320.2 219.22 -318.86 217.57 C-296.31 191.22 -260.05 177.26 -227.45 168.74 C-226.41 168.47 -226.41 168.47 -225.35 168.18 C-212.76 164.84 -200.2 162.28 -187.32 160.37 C-186.39 160.23 -185.45 160.08 -184.49 159.94 C-165.02 157 -145.46 154.86 -125.88 152.8 C-125.14 152.73 -124.4 152.65 -123.64 152.57 C-118.68 152.05 -113.72 151.53 -108.75 151.03 C-107.48 150.9 -106.21 150.77 -104.9 150.63 C-103.14 150.45 -103.14 150.45 -101.34 150.27 C-99.81 150.12 -99.81 150.12 -98.24 149.96 C-95.63 149.76 -93.07 149.7 -90.45 149.74 C-90.54 143.86 -90.65 137.97 -90.76 132.08 C-90.8 130.09 -90.84 128.09 -90.87 126.09 C-91.24 103.12 -92.85 83.02 -109.32 65.43 C-118.82 56.42 -133.39 51.07 -146.45 50.74 C-147.26 50.7 -148.07 50.66 -148.91 50.62 C-169.21 50.09 -191.32 55.65 -207.01 69.12 C-216.15 78.08 -221.73 88.59 -225.22 100.81 C-227.28 108.03 -229.5 113.81 -235.45 118.74 C-244.37 123.21 -261.13 119.16 -270.88 118.06 C-272.49 117.89 -274.11 117.71 -275.72 117.54 C-279.07 117.18 -282.42 116.81 -285.77 116.43 C-290.05 115.96 -294.32 115.5 -298.59 115.04 C-301.91 114.68 -305.23 114.31 -308.55 113.95 C-310.13 113.78 -311.7 113.61 -313.28 113.44 C-335.77 111 -335.77 111 -340.95 106.68 C-341.6 106.15 -342.24 105.63 -342.91 105.08 C-345.43 102.88 -345.43 102.88 -345.75 100.32 C-346.2 88.74 -343.06 78.63 -339.45 67.74 C-339.19 66.97 -338.93 66.2 -338.67 65.4 C-336.13 57.9 -333.32 50.83 -328.99 44.15 C-327.28 41.48 -325.78 38.72 -324.26 35.93 C-320.76 29.88 -316.5 24.77 -311.9 19.55 C-309.49 16.88 -309.49 16.88 -307.74 14.37 C-307.31 13.83 -306.89 13.29 -306.45 12.74 C-305.79 12.74 -305.13 12.74 -304.45 12.74 C-304.2 12.17 -303.96 11.59 -303.71 11 C-296.44 -1.97 -277.21 -11.39 -264.45 -18.26 C-263.6 -18.72 -262.75 -19.18 -261.87 -19.65 C-251.77 -24.91 -241.03 -28.81 -230.26 -32.45 C-229.21 -32.8 -229.21 -32.8 -228.14 -33.17 C-157.61 -56.47 -57.04 -52.67 0 0 Z " fill="#201D20" transform="translate(790.4453125,125.2578125)"/>
<path d="M0 0 C3.89 1.71 7.58 3.71 11.28 5.8 C14.34 7.53 17.42 9.22 20.51 10.91 C21.13 11.25 21.76 11.6 22.4 11.95 C29.64 15.93 37.03 19.59 44.45 23.23 C45.37 23.69 46.29 24.14 47.25 24.61 C48.45 25.2 48.45 25.2 49.67 25.8 C51.31 26.64 52.9 27.55 54.47 28.51 C57 30 59.5 31.15 62.21 32.27 C63.2 32.68 64.19 33.09 65.21 33.51 C66.26 33.94 67.3 34.37 68.38 34.81 C69.45 35.26 70.52 35.7 71.63 36.16 C78.56 39.02 85.5 41.83 92.49 44.55 C95.43 45.77 98.3 47.07 101.18 48.42 C106.93 51.05 112.79 53.07 118.81 55 C125.13 57.05 131.43 59.14 137.68 61.4 C145.1 64.07 152.6 66.49 160.13 68.86 C162.37 69.56 164.6 70.27 166.84 70.98 C175.29 73.65 183.76 76.04 192.38 78.11 C197.25 79.31 202.08 80.63 206.91 81.97 C217.91 84.84 229.16 86.87 240.3 89.11 C242.56 89.56 244.83 90.02 247.1 90.48 C254.78 92.03 262.44 93.42 270.19 94.55 C272.57 94.93 274.85 95.4 277.19 95.97 C284.68 97.71 292.37 98.5 300 99.44 C300.88 99.55 301.75 99.66 302.65 99.77 C324.82 102.48 347.06 103.7 369.35 104.86 C371.91 105 374.47 105.14 377.02 105.29 C385.31 105.78 393.57 106.19 401.88 106.19 C402.96 106.19 404.05 106.19 405.17 106.19 C416.58 106.11 427.98 105.63 439.38 105.12 C440.29 105.09 441.21 105.05 442.15 105.01 C452.35 104.56 462.5 103.94 472.66 102.99 C473.56 102.91 474.45 102.83 475.37 102.74 C476.2 102.66 477.02 102.58 477.87 102.5 C478.96 102.39 478.96 102.39 480.07 102.28 C482.21 102.03 482.21 102.03 485 101 C486.34 100.96 487.69 100.96 489.03 101 C494.27 101.06 499.36 100.57 504.56 99.94 C505.61 99.81 506.65 99.69 507.73 99.56 C518.33 98.2 528.85 96.4 539.38 94.56 C540.21 94.42 541.04 94.27 541.9 94.12 C551.01 92.53 560.1 90.83 569.16 88.96 C569.92 88.81 570.67 88.66 571.45 88.5 C576.12 87.53 580.52 86.21 584.99 84.56 C587.86 83.76 590.18 84.2 593 85 C593 84.34 593 83.68 593 83 C593.63 82.87 594.25 82.73 594.9 82.6 C596.12 82.33 596.12 82.33 597.38 82.06 C598.19 81.89 599 81.71 599.84 81.54 C602.03 81.08 602.03 81.08 604 80 C605.35 79.84 606.71 79.71 608.07 79.61 C612.91 79.11 617.22 77.86 621.81 76.31 C623.48 75.77 625.14 75.23 626.81 74.68 C627.66 74.4 628.51 74.13 629.39 73.84 C633.7 72.45 638.04 71.16 642.38 69.88 C644.04 69.38 645.71 68.88 647.38 68.38 C648.17 68.14 648.95 67.91 649.76 67.67 C660.5 64.48 660.5 64.48 671.05 60.71 C673.32 59.88 675.61 59.23 677.94 58.56 C681.96 57.38 685.65 55.87 689.45 54.11 C693.78 52.23 698.24 50.72 702.7 49.16 C705.29 48.25 707.87 47.3 710.44 46.31 C716.36 44.13 721.62 42.29 728 43 C731.52 45.19 733.47 47.17 735 51 C735.25 55.57 734.51 59.16 732.12 63.06 C730 65 730 65 727 65 C727 65.66 727 66.32 727 67 C726.01 67 725.02 67 724 67 C723.67 67.99 723.34 68.98 723 70 C720.95 71.54 720.95 71.54 718.25 73.19 C717.24 73.81 716.22 74.43 715.18 75.07 C714.13 75.71 713.08 76.34 712 77 C710.66 77.86 710.66 77.86 709.29 78.74 C689.32 91.48 667.71 102.51 646 112 C645.02 112.43 644.04 112.86 643.03 113.3 C611.75 126.64 579.05 137.93 546 146 C545.15 146.21 544.3 146.42 543.43 146.64 C524.08 151.38 504.43 154.75 484.75 157.81 C483.97 157.94 483.19 158.06 482.39 158.19 C477.54 158.91 472.91 159.06 468 159 C466 159.31 464 159.64 462 160 C459.39 160.26 456.78 160.5 454.17 160.72 C451.96 160.88 451.96 160.88 450 162 C446.58 162.06 443.18 162.02 439.77 161.96 C435.75 161.81 435.75 161.81 432 163 C428.65 163.07 425.32 163 421.97 162.94 C419.07 162.79 419.07 162.79 417 164 C415.66 164.09 414.32 164.13 412.97 164.13 C412.14 164.13 411.31 164.14 410.45 164.14 C409.54 164.14 408.64 164.13 407.71 164.13 C406.3 164.13 406.3 164.13 404.86 164.14 C402.87 164.14 400.87 164.13 398.87 164.13 C395.87 164.13 392.87 164.13 389.86 164.14 C362.3 164.15 362.3 164.15 355.99 162.46 C353.24 161.82 350.68 161.97 347.86 162.04 C339.23 162.1 330.76 161.27 322.19 160.31 C321.38 160.23 320.58 160.14 319.75 160.05 C304.47 158.37 289.11 156.29 274.34 151.91 C271.27 151.07 268.34 150.67 265.18 150.33 C260.9 149.69 256.78 148.38 252.62 147.19 C245.93 145.3 239.26 143.57 232.44 142.19 C224.19 140.47 216.17 138.05 208.12 135.56 C206.91 135.19 205.7 134.82 204.45 134.44 C197.72 132.32 191.26 129.91 184.78 127.13 C182.26 126.11 179.79 125.3 177.18 124.56 C170.97 122.8 165.07 120.3 159.13 117.81 C157.18 117 155.22 116.19 153.26 115.38 C152 114.86 150.74 114.34 149.48 113.81 C148.36 113.34 147.23 112.88 146.07 112.39 C143.23 111.1 140.67 109.61 138 108 C136.47 107.34 134.92 106.72 133.36 106.14 C127.83 103.98 122.55 101.43 117.25 98.75 C116.28 98.26 115.31 97.78 114.32 97.27 C107.41 93.77 100.63 90.12 93.97 86.16 C91.65 84.8 89.32 83.45 87 82.11 C63.89 68.71 41.62 53.76 20.6 37.26 C18.93 35.95 17.26 34.65 15.58 33.36 C9.42 28.58 3.34 23.71 -2.62 18.69 C-3.2 18.21 -3.78 17.73 -4.38 17.23 C-8.01 14.15 -10.64 11.15 -13 7 C-12.69 4.75 -12.69 4.75 -12 3 C-12.33 2.34 -12.66 1.68 -13 1 C-8.55 -1.53 -4.85 -1.3 0 0 Z " fill="#F3A521" transform="translate(238,592)"/>
<path d="M0 0 C1.66 1.66 1.14 3.61 1.16 5.89 C1.17 6.94 1.18 7.98 1.19 9.06 C1.2 10.78 1.2 10.78 1.2 12.54 C1.21 13.73 1.21 14.91 1.22 16.14 C1.23 18.67 1.24 21.2 1.24 23.74 C1.25 27.53 1.28 31.33 1.31 35.12 C1.4 56.07 0.26 76.22 -7 96 C-7.39 97.15 -7.78 98.3 -8.19 99.48 C-14.28 116.58 -27.86 135.85 -44 145 C-44.99 144.67 -45.98 144.34 -47 144 C-47.33 144.99 -47.66 145.98 -48 147 C-59.77 155.41 -76.29 156.47 -90.16 154.57 C-104.2 151.59 -116.91 143.4 -125.31 131.75 C-133.1 119.1 -135.35 105.71 -135.25 91.12 C-135.26 90.03 -135.27 88.94 -135.27 87.81 C-135.22 66.91 -128.94 47.04 -114.12 31.93 C-85.31 4.05 -38.35 -1.87 0 0 Z " fill="#FAFCFC" transform="translate(699,347)"/>
<path d="M0 0 C1.04 0.24 2.07 0.48 3.14 0.73 C9.09 2.31 14.03 4.35 17.81 9.44 C20.35 17.06 20.46 25.14 19 33 C18.73 35.75 18.51 38.5 18.28 41.25 C17.08 53 13.94 64.48 9.16 75.25 C7.71 78.68 6.7 82.16 5.69 85.73 C4.71 88.95 3.4 91.94 2 95 C1.34 95 0.68 95 0 95 C-0.15 96.33 -0.15 96.33 -0.31 97.69 C-1.02 101.08 -1.96 103.22 -4 106 C-4.66 106 -5.32 106 -6 106 C-6.07 106.68 -6.14 107.37 -6.21 108.07 C-7.24 111.9 -9.26 114.72 -11.56 117.88 C-12.01 118.5 -12.46 119.12 -12.92 119.76 C-16.02 123.95 -19.31 127.37 -23.41 130.63 C-25.19 132.01 -25.19 132.01 -26.44 134.5 C-29.04 138.67 -32.83 141.47 -37 144 C-40.44 144.56 -40.44 144.56 -43 144 C-45 142 -45 142 -45.27 138.77 C-44.99 134.85 -44.18 132.28 -42.62 128.69 C-42.07 127.37 -41.52 126.06 -40.98 124.74 C-40.67 124 -40.36 123.26 -40.04 122.5 C-33.46 106.63 -27.45 90.61 -23 74 C-22.49 72.16 -22.49 72.16 -21.97 70.29 C-20.34 63.73 -19.69 57.36 -19.56 50.62 C-19.54 49.89 -19.52 49.15 -19.49 48.39 C-19.52 42.95 -20.81 38.47 -24 34 C-31.92 29.25 -41.83 28.71 -50.88 28.55 C-52.21 28.52 -52.21 28.52 -53.58 28.48 C-55.44 28.44 -57.3 28.4 -59.16 28.37 C-62.02 28.31 -64.88 28.24 -67.74 28.17 C-69.55 28.13 -71.37 28.09 -73.19 28.05 C-74.47 28.02 -74.47 28.02 -75.78 27.99 C-80.02 27.78 -80.02 27.78 -84 29 C-86.57 29.07 -89.12 29 -91.69 28.94 C-94.03 28.84 -94.03 28.84 -96 30 C-107.26 31.83 -119.61 33.09 -131 32 C-133 30 -133 30 -133.56 27.75 C-132.49 22.5 -127.61 20.06 -123.39 17.27 C-88.82 -3.94 -39.26 -9.27 0 0 Z " fill="#F3A521" transform="translate(1026,579)"/>
<path d="M0 0 C1.49 0.99 1.49 0.99 3 2 C2.78 2.57 2.56 3.15 2.33 3.74 C1.77 6.04 1.77 6.04 3.05 8.04 C8.03 14.32 13.67 19.11 20 24 C21.09 24.86 22.17 25.72 23.26 26.59 C38.07 38.37 53.26 49.49 69 60 C69.82 60.55 70.64 61.1 71.49 61.66 C93.41 76.25 116.36 89.21 139.88 101.06 C140.58 101.42 141.29 101.78 142.02 102.15 C145.26 103.76 148.47 105.21 151.88 106.43 C154.93 107.53 157.75 108.85 160.62 110.34 C166.91 113.54 173.43 116.07 180 118.62 C181.21 119.1 182.41 119.58 183.66 120.07 C189.6 122.4 195.51 124.52 201.65 126.27 C204.14 127.04 206.51 127.97 208.92 128.96 C214.29 131.17 219.76 132.9 225.31 134.56 C226.32 134.87 227.33 135.17 228.38 135.49 C235.54 137.62 242.68 139.47 250 141 C258.25 142.81 266.38 144.87 274.47 147.29 C278.98 148.59 283.31 149.33 287.99 149.78 C290.45 150.05 292.7 150.64 295.06 151.38 C307.49 154.95 320.31 156.58 333.14 157.94 C335.5 158.19 337.86 158.46 340.22 158.72 C349.18 159.71 357.94 160.16 366.96 159.97 C370 160 370 160 372 161 C383.54 162.35 395.22 162.16 406.82 162.13 C409.85 162.12 412.88 162.13 415.92 162.14 C417.85 162.14 419.78 162.13 421.71 162.13 C422.61 162.13 423.52 162.14 424.45 162.14 C425.7 162.13 425.7 162.13 426.97 162.13 C427.7 162.13 428.44 162.13 429.19 162.13 C431.1 162.11 431.1 162.11 433 161 C436.22 160.93 439.42 161 442.64 161.06 C445.88 161 448.82 160.54 452 160 C454.02 159.96 456.04 159.96 458.06 160 C461.89 160.08 465.27 159.88 469 159 C469 159.99 469 160.98 469 162 C445.11 168.17 420.47 167.24 396 166.62 C395.16 166.6 394.31 166.58 393.44 166.56 C391.02 166.5 388.61 166.43 386.19 166.35 C385.12 166.32 385.12 166.32 384.04 166.29 C379.3 166.13 374.69 165.64 370 165 C370 164.34 370 163.68 370 163 C369.34 163.33 368.68 163.66 368 164 C353.96 165.08 340.36 164.18 326.68 161.01 C322 159.94 317.34 159.39 312.56 158.94 C304.14 158.12 295.91 156.76 287.91 153.89 C285.12 153.04 283.53 152.91 280.69 153.19 C275.47 153.32 270.9 152.09 265.94 150.62 C265.17 150.4 264.41 150.18 263.63 149.95 C261.73 149.37 259.86 148.69 258 148 C257.67 147.34 257.34 146.68 257 146 C253.64 145.4 250.29 145.03 246.9 144.65 C242.05 143.84 237.45 142.52 232.75 141.12 C230.87 140.58 228.99 140.03 227.11 139.48 C226.22 139.22 225.33 138.96 224.42 138.69 C221.6 137.89 218.77 137.16 215.94 136.44 C210.1 134.86 204.39 132.73 199 130 C198.67 129.34 198.34 128.68 198 128 C196.05 127.49 196.05 127.49 193.68 127.18 C187.42 126.04 181.93 123.67 176.12 121.12 C170.07 118.49 164.07 115.96 157.77 113.95 C152.71 112.31 148.2 110.27 143.56 107.69 C141.93 106.8 140.3 105.92 138.66 105.04 C137.33 104.32 137.33 104.32 135.97 103.58 C132.65 101.81 129.31 100.1 125.96 98.4 C114.41 92.52 102.96 86.64 92 79.72 C87.45 76.85 82.84 74.27 78.06 71.81 C70.6 67.94 63.49 63.56 57.57 57.52 C54.87 54.87 52.1 52.9 48.94 50.81 C43.43 47.1 38.36 43.05 33.31 38.74 C29.42 35.47 25.36 32.44 21.31 29.38 C1.7 14.48 1.7 14.48 -0.81 6.38 C-1 3.97 -0.76 2.28 0 0 Z " fill="#F6EBCB" transform="translate(224,593)"/>
<path d="M0 0 C2.89 -0.02 5.78 -0.05 8.67 -0.1 C44.23 -0.7 44.23 -0.7 59.49 10.41 C64.19 16.88 63.93 23.65 63.49 31.41 C62.49 35.16 62.49 35.16 61.49 37.41 C60.5 37.41 59.51 37.41 58.49 37.41 C58.63 36.28 58.63 36.28 58.78 35.13 C59.66 26.98 59.47 20.07 56.24 12.47 C51.98 7.45 45.45 6.51 39.3 5.28 C38.51 5.11 37.73 4.94 36.92 4.77 C-2.98 -3.45 -52 2.3 -86.37 24.83 C-88.31 26.25 -89.98 27.56 -91.51 29.41 C-91.76 32.03 -91.76 32.03 -91.51 34.41 C-80.56 37.57 -64.49 35.78 -53.49 32.87 C-50.21 32.1 -46.87 32.41 -43.51 32.41 C-42.18 32.08 -40.84 31.74 -39.51 31.41 C-36.71 31.34 -33.95 31.33 -31.15 31.39 C-29.92 31.41 -29.92 31.41 -28.66 31.43 C-26.92 31.46 -25.17 31.5 -23.43 31.54 C-20.81 31.59 -18.2 31.62 -15.58 31.65 C-5.08 31.83 5.68 32.28 15.49 36.41 C21.95 43.24 22.08 50.27 21.86 59.21 C20.89 77.36 13.9 94.61 7.49 111.41 C6.74 113.41 5.99 115.41 5.24 117.41 C0.02 131.26 0.02 131.26 -2.22 136.25 C-3.7 139.86 -3.82 142.54 -3.51 146.41 C-2.42 147.7 -2.42 147.7 0.23 147.7 C4.18 147.34 5.66 146.25 8.68 143.72 C9.52 143.03 10.36 142.35 11.22 141.64 C13.51 139.38 14.87 137.17 16.49 134.41 C17.5 133.62 18.51 132.84 19.55 132.03 C23.49 128.83 26.09 124.91 28.86 120.72 C29.31 120.05 29.75 119.38 30.2 118.7 C31.97 115.96 33.46 113.51 34.49 110.41 C35.15 110.41 35.81 110.41 36.49 110.41 C37.98 106.78 39.28 103.13 40.49 99.41 C41.15 99.41 41.81 99.41 42.49 99.41 C42.64 98.38 42.64 98.38 42.8 97.34 C43.45 94.57 44.44 92.2 45.61 89.61 C47.16 85.72 48.25 81.68 49.45 77.67 C50.36 74.81 51.41 72.14 52.61 69.41 C54.64 64.54 55.36 59.73 56.06 54.53 C56.44 51.76 56.88 49.03 57.43 46.28 C57.56 45.6 57.69 44.91 57.83 44.21 C58.63 42.03 59.76 40.92 61.49 39.41 C62.21 56.58 62.21 56.58 58.5 64.19 C57.12 67.21 56.61 70.24 56.08 73.49 C55.49 75.41 55.49 75.41 53.98 76.89 C52.06 78.84 52.01 80.09 51.68 82.78 C50.47 89.56 47.52 95.27 44.49 101.41 C43.87 102.73 43.25 104.05 42.63 105.37 C37.27 116.7 30.61 126.15 22.17 135.46 C20.31 137.61 18.67 139.86 16.99 142.16 C12.76 147.6 8.69 150.22 1.8 151.47 C-1.55 151.69 -2.26 151.58 -5.14 149.59 C-7.5 144.11 -6.54 139.29 -4.56 133.76 C-3.74 131.81 -2.9 129.88 -2.04 127.95 C-0.16 123.6 1.48 119.17 3.11 114.72 C3.4 113.93 3.69 113.15 3.99 112.34 C5.67 107.76 7.26 103.16 8.78 98.52 C9.42 96.6 10.1 94.69 10.77 92.77 C13.43 85.15 15.41 77.7 16.81 69.74 C17.47 66.51 18.44 63.53 19.49 60.41 C20.16 53.68 18.78 48.33 15.49 42.41 C8.6 36.11 -3.65 37 -12.39 36.78 C-13.59 36.74 -14.79 36.7 -16.03 36.66 C-22.43 36.47 -28.81 36.38 -35.21 36.49 C-37.51 36.41 -37.51 36.41 -39.53 35.88 C-41.86 35.32 -43.64 35.47 -46.01 35.75 C-47.33 35.9 -47.33 35.9 -48.68 36.05 C-49.61 36.17 -50.55 36.29 -51.51 36.41 C-52.47 36.52 -53.44 36.64 -54.43 36.76 C-57.44 37.13 -60.44 37.51 -63.45 37.91 C-64.47 38.04 -65.5 38.17 -66.56 38.3 C-67.54 38.43 -68.53 38.55 -69.54 38.69 C-70.42 38.8 -71.31 38.91 -72.22 39.03 C-74.66 39.37 -74.66 39.37 -77.51 40.41 C-85.58 40.79 -85.58 40.79 -89.51 38.41 C-90.21 38.24 -90.91 38.08 -91.64 37.91 C-93.51 37.41 -93.51 37.41 -95.51 35.41 C-96.17 32 -95.61 30.57 -93.82 27.59 C-87.84 20.97 -78.65 16.67 -70.51 13.41 C-69.76 13.1 -69.02 12.8 -68.25 12.49 C-45.13 3.21 -24.81 0.14 0 0 Z " fill="#F6EDD0" transform="translate(985.5107421875,574.594970703125)"/>
<path d="M0 0 C3.17 2.46 4.79 4.68 7 8 C7.44 12.51 7.53 14.94 5.5 19 C-4.37 30.84 -16.78 37.79 -29.96 45.4 C-33.84 47.66 -37.49 50.02 -41.06 52.75 C-45.46 55.93 -50.09 57.68 -55.17 59.43 C-62.89 62.16 -70.15 65.82 -77.46 69.48 C-78.41 69.95 -79.36 70.42 -80.34 70.9 C-81.19 71.33 -82.04 71.76 -82.92 72.2 C-83.6 72.46 -84.29 72.73 -85 73 C-85.99 72.5 -85.99 72.5 -87 72 C-81.33 68.3 -75.56 65.23 -69.44 62.33 C-66.88 61.24 -66.88 61.24 -66 59 C-63.54 57.77 -61.08 56.62 -58.56 55.5 C-43.36 48.53 -29.04 40.07 -15 31 C-14.42 30.63 -13.85 30.27 -13.25 29.89 C-10.1 27.95 -10.1 27.95 -8 25 C-7.01 25 -6.02 25 -5 25 C-5 24.34 -5 23.68 -5 23 C-4.4 22.79 -3.8 22.59 -3.19 22.38 C-0.09 20.43 0.7 18.39 2 15 C2.59 10.94 2.18 9.33 0.19 5.69 C-2.43 2.47 -3.83 2.13 -7.88 1.69 C-16.73 1.84 -25.39 6.04 -33.24 9.77 C-37.15 11.51 -41.16 12.8 -45.22 14.1 C-47.56 14.86 -49.84 15.67 -52.12 16.56 C-55.83 17.99 -59.59 19.09 -63.41 20.16 C-66.09 20.98 -66.09 20.98 -68.92 22.32 C-74.8 24.9 -81.04 26.51 -87.19 28.31 C-88.53 28.71 -89.87 29.11 -91.22 29.51 C-93.23 30.1 -95.25 30.7 -97.27 31.3 C-101.27 32.48 -105.26 33.69 -109.24 34.92 C-110.15 35.2 -111.06 35.48 -112 35.77 C-113.66 36.28 -115.32 36.8 -116.97 37.32 C-120.74 38.48 -124.05 39.31 -128 39 C-128 38.34 -128 37.68 -128 37 C-127.38 36.83 -126.76 36.67 -126.12 36.5 C-123.27 35.73 -120.42 34.96 -117.56 34.19 C-116.59 33.93 -115.61 33.67 -114.61 33.4 C-109.38 31.98 -104.21 30.46 -99.08 28.7 C-95.84 27.61 -92.58 26.62 -89.31 25.62 C-82.86 23.63 -76.52 21.45 -70.18 19.11 C-67.96 18.34 -65.71 17.64 -63.44 17 C-60.33 16.09 -57.52 15 -54.56 13.69 C-49.21 11.41 -43.79 9.63 -38.23 7.95 C-32.49 6.21 -26.9 4.16 -21.32 1.97 C-13.99 -0.87 -7.74 -1.72 0 0 Z " fill="#F7EFD6" transform="translate(970,634)"/>
<path d="M0 0 C0.33 0 0.66 0 1 0 C1.72 17.18 1.72 17.18 -1.99 24.79 C-3.37 27.8 -3.88 30.83 -4.41 34.09 C-5 36 -5 36 -6.51 37.48 C-8.43 39.43 -8.48 40.68 -8.81 43.38 C-10.02 50.15 -12.97 55.87 -16 62 C-16.62 63.32 -17.24 64.64 -17.86 65.96 C-23.22 77.3 -29.88 86.74 -38.32 96.06 C-40.18 98.21 -41.82 100.46 -43.5 102.75 C-47.73 108.2 -51.8 110.81 -58.69 112.06 C-62.04 112.28 -62.75 112.17 -65.62 110.19 C-67.99 104.7 -67.03 99.89 -65.05 94.35 C-64.23 92.41 -63.39 90.47 -62.53 88.55 C-60.65 84.19 -59.01 79.77 -57.38 75.31 C-57.09 74.53 -56.8 73.75 -56.5 72.94 C-54.82 68.36 -53.23 63.75 -51.71 59.12 C-51.06 57.19 -50.39 55.28 -49.72 53.37 C-47.06 45.74 -45.08 38.29 -43.68 30.34 C-43.02 27.1 -42.06 24.12 -41 21 C-40.62 18.67 -40.28 16.34 -40 14 C-39.67 14 -39.34 14 -39 14 C-38.76 21.33 -39.25 27.99 -40.94 35.12 C-41.15 36.06 -41.37 36.99 -41.6 37.96 C-44.46 49.63 -48.72 60.79 -53 72 C-53.75 74 -54.5 76 -55.25 78 C-60.47 91.86 -60.47 91.86 -62.71 96.84 C-64.19 100.45 -64.31 103.13 -64 107 C-62.91 108.3 -62.91 108.3 -60.26 108.29 C-56.3 107.94 -54.83 106.84 -51.81 104.31 C-50.55 103.29 -50.55 103.29 -49.27 102.24 C-46.97 99.98 -45.62 97.77 -44 95 C-42.48 93.82 -42.48 93.82 -40.94 92.62 C-37 89.43 -34.4 85.51 -31.62 81.31 C-31.18 80.65 -30.74 79.98 -30.29 79.29 C-28.52 76.56 -27.03 74.1 -26 71 C-25.34 71 -24.68 71 -24 71 C-22.51 67.38 -21.21 63.72 -20 60 C-19.34 60 -18.68 60 -18 60 C-17.9 59.32 -17.79 58.64 -17.69 57.94 C-17.04 55.16 -16.05 52.8 -14.88 50.21 C-13.33 46.32 -12.24 42.27 -11.04 38.26 C-10.13 35.41 -9.08 32.74 -7.88 30 C-5.85 25.14 -5.13 20.33 -4.43 15.13 C-4.05 12.35 -3.58 9.62 -3 6.88 C-2.86 6.19 -2.71 5.51 -2.56 4.8 C-2 3 -2 3 0 0 Z " fill="#F7F0D8" transform="translate(1046,614)"/>
<path d="M0 0 C12.84 3.38 25.83 5.29 39.01 6.69 C41.37 6.94 43.74 7.21 46.1 7.47 C55.06 8.46 63.82 8.91 72.83 8.72 C75.88 8.75 75.88 8.75 77.88 9.75 C89.41 11.1 101.1 10.91 112.7 10.88 C115.73 10.87 118.76 10.88 121.79 10.89 C123.72 10.89 125.65 10.88 127.58 10.88 C128.49 10.88 129.39 10.89 130.32 10.89 C131.57 10.88 131.57 10.88 132.85 10.88 C133.58 10.88 134.31 10.88 135.07 10.88 C136.98 10.86 136.98 10.86 138.88 9.75 C142.09 9.68 145.3 9.75 148.52 9.81 C151.75 9.75 154.69 9.29 157.88 8.75 C159.9 8.71 161.92 8.71 163.94 8.75 C167.76 8.83 171.15 8.63 174.88 7.75 C174.88 8.74 174.88 9.73 174.88 10.75 C150.99 16.92 126.35 15.99 101.88 15.38 C101.03 15.35 100.19 15.33 99.32 15.31 C96.9 15.25 94.48 15.18 92.06 15.1 C91.35 15.08 90.64 15.06 89.91 15.04 C85.17 14.88 80.56 14.39 75.88 13.75 C75.88 13.09 75.88 12.43 75.88 11.75 C75.22 12.08 74.56 12.41 73.88 12.75 C59.84 13.83 46.23 12.93 32.56 9.76 C27.88 8.69 23.22 8.14 18.44 7.69 C11.07 6.98 4.06 5.57 -3.12 3.75 C-4.79 3.41 -6.46 3.07 -8.12 2.75 C-7.8 1.76 -7.46 0.77 -7.12 -0.25 C-4.33 -1.65 -3 -0.83 0 0 Z " fill="#F6EBCA" transform="translate(518.125,744.25)"/>
<path d="M0 0 C1.21 0.03 1.21 0.03 2.44 0.06 C1.44 3.06 1.44 3.06 -1.14 4.61 C-2.28 5.15 -3.42 5.69 -4.59 6.24 C-5.21 6.54 -5.82 6.83 -6.46 7.13 C-8.46 8.08 -10.48 9.01 -12.5 9.94 C-13.19 10.26 -13.87 10.57 -14.58 10.9 C-24.38 15.44 -33.96 19.1 -44.51 21.55 C-48.19 22.47 -51.77 23.69 -55.38 24.88 C-67.23 28.71 -79.26 31.92 -91.28 35.17 C-93.36 35.74 -95.44 36.31 -97.52 36.89 C-103.62 38.6 -109.71 40.02 -115.94 41.19 C-116.84 41.36 -117.74 41.53 -118.67 41.71 C-125.63 42.99 -132.49 43.8 -139.56 44.06 C-139.23 43.4 -138.9 42.74 -138.56 42.06 C-136.9 41.71 -135.23 41.38 -133.56 41.06 C-132.57 40.4 -131.58 39.74 -130.56 39.06 C-128.24 38.46 -128.24 38.46 -125.5 37.95 C-124.49 37.76 -123.47 37.56 -122.43 37.36 C-121.34 37.16 -120.25 36.96 -119.12 36.75 C-82.16 29.6 -35.75 0.87 0 0 Z " fill="#F7EED4" transform="translate(880.5625,704.9375)"/>
<path d="M0 0 C6.7 -0.4 12.93 0.23 19.5 1.44 C25.73 2.57 31.8 3.27 38.12 3.5 C45.26 3.76 52.24 4.48 59.31 5.44 C77.98 7.92 96.85 9.32 115.69 9.03 C121.19 8.96 126.63 9.1 132.12 9.42 C146.34 10.22 160.31 9.54 174.5 8.56 C178.97 8.27 183.44 7.98 187.91 7.69 C188.96 7.62 190.01 7.56 191.1 7.49 C199.41 6.98 207.67 6.82 216 7 C215.67 7.66 215.34 8.32 215 9 C211.91 9.47 208.9 9.8 205.79 10.05 C204.85 10.14 203.9 10.22 202.93 10.31 C192.76 11.16 182.57 11.69 172.38 12.12 C171.42 12.17 170.46 12.21 169.47 12.25 C142.69 13.4 116.24 12.89 89.49 11.27 C85.51 11.03 81.54 10.81 77.57 10.6 C63.06 9.76 48.67 8.25 34.25 6.5 C32.91 6.34 32.91 6.34 31.54 6.17 C28.97 5.86 26.4 5.54 23.83 5.22 C23.07 5.13 22.31 5.03 21.53 4.94 C16.96 4.35 12.5 3.51 8.01 2.46 C5.36 1.85 2.69 1.41 0 1 C0 0.67 0 0.34 0 0 Z " fill="#F6EED1" transform="translate(505,686)"/>
<path d="M0 0 C0 0.99 0 1.98 0 3 C-1.33 2.88 -1.33 2.88 -2.69 2.75 C-11.62 2.77 -20.33 7.01 -28.24 10.77 C-32.15 12.51 -36.16 13.8 -40.22 15.1 C-42.56 15.86 -44.84 16.67 -47.12 17.56 C-50.83 18.99 -54.59 20.09 -58.41 21.16 C-61.09 21.98 -61.09 21.98 -63.92 23.32 C-69.8 25.9 -76.04 27.51 -82.19 29.31 C-83.53 29.71 -84.87 30.11 -86.22 30.51 C-88.23 31.1 -90.25 31.7 -92.27 32.3 C-96.27 33.48 -100.26 34.69 -104.24 35.92 C-105.15 36.2 -106.06 36.48 -107 36.77 C-108.66 37.28 -110.32 37.8 -111.97 38.32 C-115.74 39.48 -119.05 40.31 -123 40 C-123 39.34 -123 38.68 -123 38 C-122.38 37.83 -121.76 37.67 -121.12 37.5 C-118.27 36.73 -115.42 35.96 -112.56 35.19 C-111.59 34.93 -110.61 34.67 -109.61 34.4 C-104.38 32.98 -99.21 31.46 -94.08 29.7 C-90.84 28.61 -87.58 27.62 -84.31 26.62 C-77.86 24.63 -71.52 22.45 -65.18 20.11 C-62.96 19.34 -60.71 18.64 -58.44 18 C-55.33 17.09 -52.52 16 -49.56 14.69 C-44.21 12.41 -38.79 10.63 -33.23 8.95 C-27.49 7.21 -21.9 5.16 -16.32 2.97 C-10.68 0.78 -6.03 -0.14 0 0 Z " fill="#F6EED1" transform="translate(965,633)"/>
<path d="M0 0 C9.58 0.42 17.93 3.24 26.69 7 C31.84 9.13 37.14 10.31 42.58 11.43 C46.54 12.28 50.14 13.4 53.88 14.96 C58.97 17.08 64.07 18.38 69.44 19.56 C71.29 19.98 73.14 20.41 75 20.83 C75.87 21.03 76.74 21.23 77.64 21.44 C80.46 22.11 83.23 22.91 86 23.75 C90.93 25.16 95.75 25.44 100.86 25.59 C104.63 26.08 107.51 27.5 111 29 C113.83 29.68 116.68 30.13 119.56 30.56 C124.57 31.34 129.22 32.24 134 34 C134 34.66 134 35.32 134 36 C106.37 30.75 106.37 30.75 94 28 C92.56 27.69 91.13 27.38 89.69 27.07 C80.81 25.14 72 23.05 63.24 20.62 C60.67 19.91 58.1 19.21 55.53 18.51 C43.75 15.28 32.04 11.85 20.38 8.25 C19.15 7.87 17.92 7.5 16.66 7.11 C10.96 5.33 5.42 3.51 0 1 C0 0.67 0 0.34 0 0 Z " fill="#F7EFD4" transform="translate(369,651)"/>
<path d="M0 0 C12.84 3.38 25.83 5.29 39.01 6.69 C41.37 6.94 43.74 7.21 46.1 7.47 C56.07 8.57 65.84 8.97 75.88 8.75 C76.37 10.24 76.37 10.24 76.88 11.75 C63.51 16.21 45.98 12.87 32.56 9.76 C27.88 8.69 23.22 8.14 18.44 7.69 C11.07 6.98 4.06 5.57 -3.12 3.75 C-4.79 3.41 -6.46 3.07 -8.12 2.75 C-7.8 1.76 -7.46 0.77 -7.12 -0.25 C-4.33 -1.65 -3 -0.83 0 0 Z " fill="#F6EDD0" transform="translate(518.125,744.25)"/>
<path d="M0 0 C4.5 0.64 8.27 2.4 12.31 4.38 C16.35 6.32 20.31 8.21 24.56 9.62 C28 11 28 11 30.66 13.34 C34.34 16.5 38.4 18.11 42.88 19.88 C44.58 20.57 46.28 21.26 47.99 21.96 C48.83 22.3 49.68 22.64 50.55 22.99 C54.09 24.45 57.57 26 61.06 27.56 C67.65 30.48 74.33 33.13 81.06 35.69 C86.63 37.81 86.63 37.81 89.3 39.15 C91.22 40.2 91.22 40.2 94.5 40.75 C100.43 42.12 105.66 45.17 111 48 C106.89 49.74 103.49 48.09 99.56 46.62 C98.82 46.36 98.08 46.09 97.32 45.81 C88.65 42.6 80.19 38.9 71.73 35.2 C67.12 33.18 62.5 31.18 57.88 29.19 C56.99 28.81 56.11 28.43 55.2 28.03 C50.02 25.81 44.83 23.74 39.45 22.05 C37.28 21.12 35.57 20.12 33.61 18.84 C29.91 16.47 26.07 14.46 22.13 12.52 C21.52 12.22 20.9 11.92 20.27 11.61 C17.72 10.35 15.16 9.1 12.6 7.86 C10.71 6.94 8.83 6.01 6.94 5.08 C5.82 4.54 4.71 3.99 3.56 3.43 C1 2 1 2 0 0 Z " fill="#F6EAC7" transform="translate(255,601)"/>
<path d="M0 0 C-0.33 0.66 -0.66 1.32 -1 2 C-4.09 2.47 -7.1 2.8 -10.21 3.05 C-11.15 3.14 -12.1 3.22 -13.07 3.31 C-23.24 4.16 -33.43 4.69 -43.62 5.12 C-44.57 5.17 -45.52 5.21 -46.49 5.25 C-62 5.94 -77.47 6.28 -93 6 C-93 5.67 -93 5.34 -93 5 C-92.28 4.97 -91.56 4.95 -90.81 4.92 C-87.56 4.81 -84.31 4.69 -81.06 4.56 C-79.93 4.52 -78.79 4.48 -77.62 4.44 C-76.54 4.4 -75.46 4.36 -74.35 4.32 C-73.35 4.28 -72.35 4.24 -71.32 4.21 C-69.04 4.25 -69.04 4.25 -68 3 C-66.46 2.82 -64.91 2.7 -63.37 2.61 C-62.38 2.55 -61.39 2.49 -60.37 2.43 C-58.75 2.34 -58.75 2.34 -57.09 2.25 C-55.98 2.18 -54.86 2.12 -53.71 2.05 C-51.34 1.91 -48.96 1.78 -46.59 1.64 C-43 1.44 -39.42 1.23 -35.84 1.02 C-23.88 0.33 -11.98 -0.24 0 0 Z " fill="#F6EAC8" transform="translate(721,693)"/>
<path d="M0 0 C14.59 -0.99 27.99 1.06 40 10 C44.7 16.48 44.44 23.25 44 31 C43 34.75 43 34.75 42 37 C41.01 37 40.02 37 39 37 C39.14 35.87 39.14 35.87 39.29 34.73 C40.17 26.58 39.98 19.66 36.75 12.06 C32.5 7.05 25.96 6.1 19.81 4.88 C18.56 4.62 18.56 4.62 17.28 4.35 C11.21 3.15 5.19 2.28 -1 2 C-0.67 1.34 -0.34 0.68 0 0 Z " fill="#F6EBCA" transform="translate(1005,575)"/>
<path d="M0 0 C1.01 0 2.02 0 3.06 0 C6.27 0.01 9.48 0.02 12.69 0.04 C14.88 0.04 17.06 0.04 19.24 0.05 C24.58 0.06 29.92 0.08 35.25 0.1 C35.25 0.43 35.25 0.76 35.25 1.1 C34.36 1.11 33.47 1.12 32.55 1.13 C2.04 1.52 -25.74 5.3 -54.75 15.1 C-52.68 12.83 -50.93 11.54 -48.08 10.41 C-47.36 10.13 -46.64 9.84 -45.89 9.55 C-45.12 9.25 -44.35 8.96 -43.56 8.66 C-42.76 8.35 -41.97 8.05 -41.15 7.73 C-27.72 2.71 -14.36 -0.08 0 0 Z " fill="#F7EFD4" transform="translate(969.74609375,574.90234375)"/>
<path d="M0 0 C-4.1 4.1 -9.64 4.64 -15.17 5.62 C-15.96 5.77 -16.76 5.91 -17.57 6.06 C-20.11 6.53 -22.65 6.98 -25.19 7.44 C-26.84 7.74 -28.5 8.04 -30.15 8.35 C-35.1 9.25 -40.05 10.13 -45 11 C-45.83 11.15 -46.67 11.29 -47.53 11.45 C-49.97 11.87 -52.41 12.29 -54.86 12.71 C-55.95 12.9 -55.95 12.9 -57.07 13.1 C-62.47 14.01 -67.54 14.26 -73 14 C-73 13.67 -73 13.34 -73 13 C-67.55 12.5 -67.55 12.5 -62 12 C-62 11.34 -62 10.68 -62 10 C-57.74 9.51 -53.48 9.04 -49.2 8.71 C-37.82 7.74 -26.96 5.24 -15.93 2.39 C-14.73 2.08 -13.53 1.78 -12.3 1.46 C-11.23 1.18 -10.16 0.9 -9.06 0.61 C-5.96 -0.01 -3.15 -0.11 0 0 Z " fill="#F7EFD4" transform="translate(820,677)"/>
<path d="M0 0 C0.33 0 0.66 0 1 0 C1.72 17.18 1.72 17.18 -1.99 24.79 C-3.37 27.8 -3.88 30.83 -4.41 34.09 C-5.13 36.42 -6.24 37.36 -8 39 C-9.19 41.6 -9.19 41.6 -10 44 C-10.99 43.67 -11.98 43.34 -13 43 C-12.6 42.15 -12.2 41.3 -11.79 40.43 C-6.73 29.22 -4.24 18 -2.56 5.81 C-2 3 -2 3 0 0 Z " fill="#F6EDCF" transform="translate(1046,614)"/>
<path d="M0 0 C8.31 1.81 16.48 3.91 24.64 6.29 C29.09 7.56 33.4 8.45 38 9 C36.45 10.83 35.48 11.88 33.12 12.47 C27.07 12.55 21.7 11.3 15.94 9.62 C15.17 9.4 14.41 9.18 13.63 8.96 C11.73 8.37 9.86 7.69 8 7 C7.67 6.34 7.34 5.68 7 5 C5.12 4.1 5.12 4.1 2.94 3.38 C2.2 3.11 1.47 2.85 0.71 2.59 C0.15 2.39 -0.42 2.2 -1 2 C-0.67 1.34 -0.34 0.68 0 0 Z " fill="#F6E9C6" transform="translate(474,734)"/>
<path d="M0 0 C3.21 0.62 6.42 1.25 9.62 1.88 C10.53 2.05 11.43 2.22 12.36 2.4 C16.09 3.14 19.65 3.88 23.25 5.11 C27.35 6.44 31.4 6.4 35.68 6.56 C39.53 7.07 42.44 8.47 46 10 C48.83 10.68 51.68 11.13 54.56 11.56 C59.57 12.34 64.22 13.24 69 15 C69 15.66 69 16.32 69 17 C41.32 11.74 41.32 11.74 29 9 C27.52 8.68 26.03 8.36 24.55 8.04 C16.3 6.24 8.11 4.36 0 2 C0 1.34 0 0.68 0 0 Z " fill="#F6ECCC" transform="translate(434,670)"/>
<path d="M0 0 C1.49 0.99 1.49 0.99 3 2 C2.78 2.57 2.56 3.15 2.33 3.74 C1.77 6.04 1.77 6.04 3.05 8.04 C8.03 14.32 13.67 19.12 20 24 C21.91 25.48 23.81 26.96 25.72 28.45 C26.97 29.43 28.23 30.4 29.49 31.37 C33.89 34.78 33.89 34.78 35 37 C31.33 36.46 29.04 35.61 26.11 33.34 C25.4 32.8 24.7 32.25 23.97 31.7 C22.87 30.83 22.87 30.83 21.75 29.94 C20.99 29.35 20.24 28.76 19.46 28.15 C1.58 14.1 1.58 14.1 -0.81 6.38 C-1 3.97 -0.76 2.28 0 0 Z " fill="#F5E4B9" transform="translate(224,593)"/>
<path d="M0 0 C0 0.66 0 1.32 0 2 C-6.09 3.52 -11.89 4.28 -18.15 4.71 C-20.61 4.96 -22.76 5.38 -25.12 6.06 C-29.77 7.19 -34.24 7.57 -39 7 C-39.99 6.34 -40.98 5.68 -42 5 C-41.67 4.34 -41.34 3.68 -41 3 C-40.07 3.02 -39.14 3.04 -38.19 3.06 C-34.98 3.16 -34.98 3.16 -32 2 C-29.69 1.82 -27.38 1.68 -25.06 1.56 C-19.13 1.24 -13.42 0.5 -7.59 -0.7 C-4.8 -1.02 -2.7 -0.69 0 0 Z " fill="#F7EDD0" transform="translate(739,748)"/>
<path d="M0 0 C0 3.82 -0.99 4.4 -3.56 7.12 C-6.45 10.24 -9.07 13.38 -11.56 16.81 C-14.67 20.86 -17.26 23.07 -22 25 C-24.94 24.75 -24.94 24.75 -27 24 C-26.32 23.46 -25.64 22.93 -24.94 22.38 C-23.97 21.59 -23 20.81 -22 20 C-21.12 19.29 -21.12 19.29 -20.21 18.57 C-16.62 15.62 -14.36 13.04 -12 9 C-10.67 8.33 -9.33 7.66 -8 7 C-6.55 5.83 -5.13 4.62 -3.75 3.38 C-3.04 2.74 -2.34 2.11 -1.61 1.46 C-1.08 0.98 -0.55 0.5 0 0 Z " fill="#F7F0D8" transform="translate(1014,700)"/>
<path d="M0 0 C0 0.66 0 1.32 0 2 C-13.2 6.53 -26.45 10.65 -39.89 14.39 C-41.75 14.93 -43.58 15.54 -45.42 16.16 C-48.1 17.03 -50.2 17.16 -53 17 C-53 16.34 -53 15.68 -53 15 C-52.38 14.83 -51.76 14.67 -51.12 14.5 C-48.27 13.73 -45.42 12.96 -42.56 12.19 C-41.1 11.8 -41.1 11.8 -39.61 11.4 C-34.39 9.98 -29.24 8.47 -24.13 6.72 C-19.92 5.3 -15.67 4.02 -11.42 2.72 C-2.64 0 -2.64 0 0 0 Z " fill="#F6EDD0" transform="translate(895,656)"/>
<path d="M0 0 C5.92 1.56 11.87 2.82 17.88 4 C18.78 4.18 19.69 4.36 20.62 4.54 C22.79 4.97 24.96 5.39 27.12 5.81 C26.79 6.47 26.47 7.13 26.12 7.81 C16.1 7.44 6.87 6.34 -2.88 3.81 C-4.54 3.47 -6.21 3.13 -7.88 2.81 C-7.55 1.82 -7.21 0.83 -6.88 -0.19 C-4.12 -1.56 -2.95 -0.82 0 0 Z " fill="#F7EED2" transform="translate(517.875,744.1875)"/>
<path d="M0 0 C2.19 -0.31 2.19 -0.31 5 0 C9.11 3.54 11.83 6.3 12.38 11.81 C12.26 16.16 10.81 18.64 8 22 C5.75 23.88 5.75 23.88 4 25 C4.31 24.28 4.62 23.56 4.94 22.81 C6.67 18.22 7.5 13.91 7 9 C5.05 5.57 2.94 2.65 0 0 Z " fill="#F6EED3" transform="translate(965,634)"/>
<path d="M0 0 C0 0.66 0 1.32 0 2 C-0.62 2.29 -1.23 2.58 -1.87 2.88 C-8.64 6.16 -15.63 9.63 -21 15 C-21.17 17.58 -21.17 17.58 -21 20 C-18.51 20.69 -16.62 21 -14 21 C-14 21.99 -14 22.98 -14 24 C-21.39 24.36 -21.39 24.36 -24 22.81 C-25.43 20.21 -25.55 18.94 -25 16 C-20.92 9.2 -13.66 5.9 -7 2 C-4 0 -4 0 0 0 Z " fill="#F7EFD4" transform="translate(915,589)"/>
<path d="M0 0 C4.5 0.64 8.27 2.4 12.31 4.38 C16.35 6.32 20.31 8.21 24.56 9.62 C27.49 10.8 28.9 11.58 31.19 13.56 C33.81 15.83 35.74 16.95 39 18 C35.08 19.3 33.07 18.39 29.39 16.57 C28.67 16.2 27.95 15.83 27.21 15.45 C26.46 15.08 25.71 14.7 24.94 14.32 C23.37 13.52 21.8 12.73 20.23 11.92 C17.82 10.69 15.4 9.48 12.98 8.27 C11.45 7.5 9.92 6.72 8.39 5.95 C7.67 5.58 6.94 5.22 6.19 4.84 C1.12 2.23 1.12 2.23 0 0 Z " fill="#F6EED3" transform="translate(255,601)"/>
<path d="M0 0 C1.09 0.04 2.18 0.09 3.3 0.13 C8.31 0.35 13.2 0.61 18.12 1.62 C18.12 1.96 18.12 2.28 18.12 2.62 C4.26 2.62 -9.6 2.62 -23.88 2.62 C-24.21 1.97 -24.53 1.3 -24.88 0.62 C-16.51 -0.27 -8.4 -0.41 0 0 Z " fill="#F7EFD4" transform="translate(633.875,695.375)"/>
<path d="M0 0 C0.33 0.99 0.66 1.98 1 3 C-2.8 4.88 -6.61 6.75 -10.43 8.61 C-11.72 9.24 -13.02 9.88 -14.31 10.52 C-16.17 11.44 -18.03 12.35 -19.9 13.25 C-21.02 13.8 -22.14 14.35 -23.29 14.92 C-24.19 15.28 -25.08 15.63 -26 16 C-26.66 15.67 -27.32 15.34 -28 15 C-22.33 11.3 -16.56 8.23 -10.44 5.33 C-7.88 4.24 -7.88 4.24 -7 2 C-4.37 0.42 -3.13 0 0 0 Z " fill="#F7EFD4" transform="translate(911,691)"/>
<path d="M0 0 C-0.33 0.99 -0.66 1.98 -1 3 C-7.43 4.32 -13.43 5.25 -20 5 C-19.67 3.68 -19.34 2.36 -19 1 C-12.62 0.18 -6.43 -0.12 0 0 Z " fill="#F7F0D7" transform="translate(920,610)"/>
<path d="M0 0 C2.4 3.59 2.09 4.4 1.31 8.5 C1.14 9.46 0.97 10.42 0.8 11.41 C-0.05 14.17 -0.88 15.12 -3 17 C-4.19 19.6 -4.19 19.6 -5 22 C-5.99 21.67 -6.98 21.34 -8 21 C-7.59 20.07 -7.18 19.14 -6.76 18.18 C-6.21 16.93 -5.67 15.69 -5.12 14.44 C-4.86 13.83 -4.59 13.22 -4.31 12.59 C-2.51 8.45 -1.16 4.36 0 0 Z " fill="#F6E5BC" transform="translate(1041,636)"/>
<path d="M0 0 C6.98 -0.42 13.63 0.25 20.5 1.38 C21.29 1.5 22.08 1.63 22.89 1.76 C26.51 2.38 28.91 2.94 32 5 C14.53 4.24 14.53 4.24 6 2 C4 1.65 2 1.31 0 1 C0 0.67 0 0.34 0 0 Z " fill="#F6E9C6" transform="translate(505,686)"/>
<path d="M0 0 C0 0.66 0 1.32 0 2 C-5.45 3.39 -10.37 4.24 -16 4 C-16.33 3.01 -16.66 2.02 -17 1 C-15.11 0.63 -13.21 0.28 -11.31 -0.06 C-10.26 -0.26 -9.2 -0.46 -8.11 -0.66 C-5.09 -0.99 -2.92 -0.77 0 0 Z " fill="#F6EED1" transform="translate(739,748)"/>
<path d="M0 0 C7.17 0.33 12.77 3.65 19 7 C14.96 8.67 11.69 7.18 7.81 5.75 C7.17 5.53 6.53 5.31 5.87 5.09 C4.02 4.42 4.02 4.42 1 3 C0.67 2.01 0.34 1.02 0 0 Z " fill="#F6EDD0" transform="translate(347,642)"/>
<path d="M0 0 C0 0.99 0 1.98 0 3 C-0.93 2.94 -1.86 2.88 -2.81 2.81 C-8.08 2.78 -13 4.48 -18 6 C-17.67 5.01 -17.34 4.02 -17 3 C-11.64 0.78 -5.8 -0.47 0 0 Z " fill="#F5E1B1" transform="translate(965,633)"/>
<path d="M0 0 C7.25 -0.99 12.92 2.26 19 6 C21.36 8.2 21.36 8.2 23 10 C17.59 8.34 12.87 5.92 7.9 3.24 C4.98 1.99 3.14 1.74 0 2 C0 1.34 0 0.68 0 0 Z " fill="#F6E8C3" transform="translate(230,590)"/>
<path d="M0 0 C7.39 0.41 14 1.59 21 4 C21 4.66 21 5.32 21 6 C10.61 4.02 10.61 4.02 0 2 C0 1.34 0 0.68 0 0 Z " fill="#F6ECCE" transform="translate(482,681)"/>
<path d="M0 0 C1.41 4.24 -0.46 6.77 -2.31 10.56 C-2.79 11.59 -2.79 11.59 -3.29 12.64 C-4.63 15.46 -5.78 17.78 -8 20 C-8.33 19.01 -8.66 18.02 -9 17 C-8.34 17 -7.68 17 -7 17 C-6.87 16.29 -6.75 15.59 -6.62 14.86 C-5.97 11.88 -5.09 9.12 -4.06 6.25 C-3.72 5.29 -3.38 4.32 -3.04 3.33 C-2 1 -2 1 0 0 Z " fill="#F6EAC8" transform="translate(1036,658)"/>
<path d="M0 0 C0 0.99 0 1.98 0 3 C-5.23 4.47 -9.58 5.23 -15 5 C-15 4.01 -15 3.02 -15 2 C-14.23 1.94 -13.46 1.88 -12.66 1.82 C-11.16 1.69 -11.16 1.69 -9.62 1.56 C-8.63 1.48 -7.63 1.4 -6.6 1.32 C-4.13 1.02 -2.45 0 0 0 Z " fill="#F7ECCF" transform="translate(934,607)"/>
<path d="M0 0 C0.33 0 0.66 0 1 0 C1.66 1.98 2.32 3.96 3 6 C4.98 6 6.96 6 9 6 C9 6.99 9 7.98 9 9 C1.63 9.36 1.63 9.36 -1.06 7.81 C-2.39 5.24 -1.85 3.7 -1 1 C-0.67 0.67 -0.34 0.34 0 0 Z " fill="#F5E6BD" transform="translate(892,604)"/>
<path d="M0 0 C0 0.33 0 0.66 0 1 C-8.02 2.18 -15.86 3.29 -24 3 C-15.78 -1.27 -9.03 -1.11 0 0 Z " fill="#F7EFD4" transform="translate(747,691)"/>
<path d="M0 0 C0 0.66 0 1.32 0 2 C-1.79 2.67 -3.58 3.34 -5.38 4 C-6.37 4.37 -7.37 4.74 -8.4 5.12 C-11 6 -11 6 -13 6 C-12 3 -12 3 -8.75 1.31 C-5.46 0.16 -3.41 -0.31 0 0 Z " fill="#F6E9C5" transform="translate(908,652)"/>
<path d="M0 0 C0 0.66 0 1.32 0 2 C-4.92 4.63 -9.58 6.64 -15 8 C-14 5 -14 5 -11.35 3.61 C-10.26 3.18 -9.18 2.75 -8.06 2.31 C-6.98 1.88 -5.9 1.44 -4.79 0.99 C-2 0 -2 0 0 0 Z " fill="#F6E9C5" transform="translate(947,637)"/>
<path d="M0 0 C0 3 0 3 -2.62 5.7 C-3.74 6.7 -4.87 7.7 -6 8.69 C-6.57 9.2 -7.14 9.71 -7.73 10.24 C-9.15 11.5 -10.57 12.75 -12 14 C-12 10.81 -11.76 9.6 -10 7 C-8.34 6.33 -6.67 5.66 -5 5 C-2.23 2.48 -2.23 2.48 0 0 Z " fill="#F5E0AF" transform="translate(1014,700)"/>
<path d="M0 0 C0.33 0.99 0.66 1.98 1 3 C-0.29 3.7 -1.58 4.38 -2.88 5.06 C-3.95 5.64 -3.95 5.64 -5.05 6.22 C-5.7 6.48 -6.34 6.74 -7 7 C-7.66 6.67 -8.32 6.34 -9 6 C-8 3.51 -7.35 2.23 -5.06 0.75 C-3 0 -3 0 0 0 Z " fill="#F6E8C4" transform="translate(911,691)"/>
<path d="M0 0 C5.44 1.49 5.44 1.49 11 3 C10.67 3.66 10.34 4.32 10 5 C6.7 4.34 3.4 3.68 0 3 C0 2.01 0 1.02 0 0 Z " fill="#F3CF84" transform="translate(474,734)"/>
<path d="M0 0 C0 0.66 0 1.32 0 2 C-3.3 2.33 -6.6 2.66 -10 3 C-10 2.01 -10 1.02 -10 0 C-2.25 -1.12 -2.25 -1.12 0 0 Z " fill="#F7F2DD" transform="translate(944,608)"/>
<path d="M0 0 C0 0.66 0 1.32 0 2 C-1.27 2.53 -2.54 3.05 -3.81 3.56 C-4.52 3.85 -5.23 4.14 -5.96 4.44 C-8 5 -8 5 -11 4 C-4.39 0 -4.39 0 0 0 Z " fill="#F7EFD4" transform="translate(895,656)"/>
</svg>
